<svg id="Artwork" xmlns="http://www.w3.org/2000/svg" viewBox="0 0 256 44"><defs><style>.cls-1{fill:#fff;}</style></defs><title>ce master logo white rgb primary 256x44</title><path class="cls-1" d="M154.87,1.44h-2.19L146.87,16.5h2.85l1.41-3.75h5.35l1.46,3.75h3Zm-2.94,9.07,1.09-3c.41-1.16.64-1.82.77-2.34h0c.14.5.34,1.18.75,2.32l1,3Z"/><path class="cls-1" d="M183.77,5.47c-3.08,0-4.85,2.43-4.85,5.66,0,2.91,1.59,5.59,5.51,5.59a7.22,7.22,0,0,0,3.8-1l-.82-1.86a5.39,5.39,0,0,1-2.71.73,2.78,2.78,0,0,1-3.05-2.73h6.9v-.64c0-3.57-1.75-5.75-4.78-5.75M181.63,10a2.21,2.21,0,0,1,2.1-2.43c1.43,0,2,1.2,2.07,2.43Z"/><path class="cls-1" d="M230.79,5.47c-3.08,0-4.85,2.43-4.85,5.66,0,2.91,1.59,5.59,5.51,5.59a7.22,7.22,0,0,0,3.8-1l-.82-1.86a5.39,5.39,0,0,1-2.71.73,2.78,2.78,0,0,1-3.05-2.73h6.9v-.64c0-3.57-1.75-5.75-4.78-5.75M228.65,10a2.21,2.21,0,0,1,2.1-2.43c1.43,0,2,1.2,2.07,2.43Z"/><path class="cls-1" d="M252.49,2.44l-2.71.8v2.5h-1.94V7.86h1.94v6a2.75,2.75,0,0,0,3.08,2.89,6.18,6.18,0,0,0,3.14-.84L255.18,14a3.05,3.05,0,0,1-1.64.52c-.71,0-1-.36-1-1.37V7.86h1a1.7,1.7,0,0,0,1.73-.95l.53-1.06,0,0,0,0h-3.14v0h-.12Z"/><path class="cls-1" d="M174.1,5.47c-2.53,0-4.08,1.34-4.08,3.25,0,3.59,5.06,2.91,5.06,4.73,0,.82-.8,1.14-1.89,1.14a5.52,5.52,0,0,1-2.94-.89l-.12.29-.48,1.83a7.8,7.8,0,0,0,3.72.91c2.32,0,4.37-1,4.37-3.34,0-3.75-5.06-3.09-5.06-4.8,0-.7.62-1,1.53-1a7.31,7.31,0,0,1,2.55.49l.51-1.93V6a9.42,9.42,0,0,0-3.17-.52"/><path class="cls-1" d="M193.93,5.47c-2.53,0-4.08,1.34-4.08,3.25,0,3.59,5.06,2.91,5.06,4.73,0,.82-.8,1.14-1.89,1.14a5.5,5.5,0,0,1-2.83-.82l-.56,2.13a7.88,7.88,0,0,0,3.57.83c2.32,0,4.37-1,4.37-3.34,0-3.75-5.06-3.09-5.06-4.8,0-.7.62-1,1.53-1a7.29,7.29,0,0,1,2.53.48l.52-2V6a9.43,9.43,0,0,0-3.17-.52"/><path class="cls-1" d="M202.93,5.47c-2.53,0-4.08,1.34-4.08,3.25,0,3.59,5.06,2.91,5.06,4.73,0,.82-.8,1.14-1.89,1.14a5.51,5.51,0,0,1-2.86-.84l-.56,2.13a7.86,7.86,0,0,0,3.6.84c2.32,0,4.37-1,4.37-3.34,0-3.75-5.06-3.09-5.06-4.8,0-.7.61-1,1.53-1a7.29,7.29,0,0,1,2.51.48l.54-2V6a9.43,9.43,0,0,0-3.17-.52"/><path class="cls-1" d="M165.15,5.47c-2.53,0-4.08,1.34-4.08,3.25,0,3.59,5.06,2.91,5.06,4.73,0,.82-.8,1.14-1.89,1.14a5.52,5.52,0,0,1-2.94-.89h0l1,2.74a8.2,8.2,0,0,0,2.09.27c2.32,0,4.37-1,4.37-3.34,0-3.75-5.06-3.09-5.06-4.8,0-.7.62-1,1.53-1a7.29,7.29,0,0,1,2.53.48l.53-2V6a9.43,9.43,0,0,0-3.17-.52"/><path class="cls-1" d="M208,5.28l-.05,0V16.5h2.71V8.9a4.33,4.33,0,0,1,2.57-1.07c1.39,0,1.59,1,1.59,2.3V16.5h2.73V9.31l0-.41a4.21,4.21,0,0,1,2.55-1.07c1.39,0,1.64,1,1.64,2.27V16.5h2.71V9.36c0-2.84-1.69-3.89-3.58-3.89A6.24,6.24,0,0,0,217,7.13a3,3,0,0,0-2.87-1.66,6,6,0,0,0-3.62,1.48h-.1a2.08,2.08,0,0,0-1-1l-1.38-.69Z"/><path class="cls-1" d="M237.13,5.28l-.05,0V16.5h2.71V9a4.41,4.41,0,0,1,2.64-1.14c1.39,0,1.66,1.07,1.66,2.39V16.5h2.73V9.38c0-3.07-1.75-3.91-3.46-3.91a6,6,0,0,0-3.69,1.48h-.15a2.08,2.08,0,0,0-1-1l-1.38-.69Z"/><path class="cls-1" d="M49.85,1.27a7.57,7.57,0,0,0-7.93,7.8c0,4.39,2.66,7.55,7.59,7.55a9.65,9.65,0,0,0,4.64-1.12,4.09,4.09,0,0,1-.63-2.22,7.09,7.09,0,0,1-3.69,1c-3.08,0-5-2.18-5-5.32,0-2.93,1.75-5.43,5.08-5.43a8.09,8.09,0,0,1,3.87,1V2a10.05,10.05,0,0,0-3.94-.73"/><path class="cls-1" d="M86.85.18H84.14V15.76a7.72,7.72,0,0,0,3.53.75c3.67,0,6.44-2.18,6.44-6a4.94,4.94,0,0,0-5.17-5.3,7,7,0,0,0-2.09.32ZM88.1,14.26a4.15,4.15,0,0,1-1.25-.18V7.84a3.92,3.92,0,0,1,1.64-.34c1.78,0,2.82,1.32,2.82,3.21,0,2.11-1.25,3.55-3.21,3.55"/><path class="cls-1" d="M118.63.3h-2.73V5.5a8.12,8.12,0,0,0-1.46-.14,5.59,5.59,0,0,0-5.9,5.75c0,3.55,2.62,5.5,6.13,5.5a9.78,9.78,0,0,0,4-.8Zm-4,14.08a3.07,3.07,0,0,1-3.3-3.3A3.17,3.17,0,0,1,114.6,7.6a5.35,5.35,0,0,1,1.3.16v6.44a4.13,4.13,0,0,1-1.28.18"/><path class="cls-1" d="M135.62,5.37c-3.08,0-4.85,2.43-4.85,5.66,0,2.91,1.59,5.59,5.51,5.59a7.22,7.22,0,0,0,3.8-1l-.82-1.86a5.39,5.39,0,0,1-2.71.73,2.78,2.78,0,0,1-3.05-2.73h6.9v-.64c0-3.57-1.75-5.75-4.78-5.75m-2.14,4.5a2.21,2.21,0,0,1,2.1-2.43c1.43,0,2,1.2,2.07,2.43Z"/><path class="cls-1" d="M59.38,5.37a8.47,8.47,0,0,0-4.17,1.07l.89,1.75a6.1,6.1,0,0,1,2.82-.75C60.18,7.44,61,8,61,9.23v.34l-1.85.07a6.67,6.67,0,0,0-2.78.61,3.07,3.07,0,0,0-1.82,2.93,3.36,3.36,0,0,0,3.58,3.43,4.44,4.44,0,0,0,3.1-1.25h.23a2.35,2.35,0,0,0,.74.58l1.42.71.05,0,.05,0V10.33h0V9.28c0-2.59-1.44-3.91-4.33-3.91m-.48,9.12A1.42,1.42,0,0,1,57.31,13,1.3,1.3,0,0,1,58,11.78a3.42,3.42,0,0,1,1.57-.34l1.39,0v2.34a3.3,3.3,0,0,1-2,.75"/><path class="cls-1" d="M65.76,5.13l-.05,0V16.35h2.71V8.76A4.32,4.32,0,0,1,71,7.69c1.39,0,1.59,1,1.59,2.3v6.37h2.73V9.16l0-.41a4.2,4.2,0,0,1,2.55-1.07c1.39,0,1.64,1,1.64,2.27v6.39h2.71V9.21c0-2.84-1.69-3.89-3.58-3.89A6.25,6.25,0,0,0,74.74,7a3,3,0,0,0-2.87-1.66A6,6,0,0,0,68.25,6.8h-.1a2.08,2.08,0,0,0-1-1l-1.38-.69Z"/><path class="cls-1" d="M101.26,5.42a4,4,0,0,0-3,1.42L98,5.64h-2.3V16.4h2.71V8.8a3,3,0,0,1,2.34-1.33,2.71,2.71,0,0,1,1.67.62V5.62a3.46,3.46,0,0,0-1.16-.2"/><path class="cls-1" d="M105.42.64a1.62,1.62,0,0,0-1.66,1.64,1.6,1.6,0,0,0,1.66,1.61,1.63,1.63,0,1,0,0-3.25m1.37,5h-2.73V16.4h2.73Z"/><path class="cls-1" d="M130.67,5h-5.87c-2.94,0-4.4,2-4.4,4a3.76,3.76,0,0,0,1.8,3.34,2.63,2.63,0,0,0-1.3,2,1.52,1.52,0,0,0,.71,1.34,2.9,2.9,0,0,0-1.93,2.59c0,1.86,1.84,3.16,5,3.16,3.74,0,5.69-1.59,5.69-3.55,0-4-7.08-2.23-7.08-4.16a1.5,1.5,0,0,1,.27-.8,4.51,4.51,0,0,0,1.32.18c2.62,0,4.46-1.57,4.46-4a3.72,3.72,0,0,0-.76-2.28h.31v0A1.45,1.45,0,0,0,130.2,6l.47-.93,0,0ZM124.86,11A1.87,1.87,0,0,1,123,9a1.81,1.81,0,0,1,1.87-2,1.93,1.93,0,0,1,1.94,2,1.81,1.81,0,0,1-1.91,2m.18,8.46c-1.8,0-2.94-.66-2.94-1.73a1.81,1.81,0,0,1,.87-1.41c1.46.57,4.81.25,4.81,1.8,0,.8-1.09,1.34-2.73,1.34"/><path class="cls-1" d="M42.57,23.69h7.56l-.61,1.72H44.59v4.74h4.88v1.72H44.59v5h5.63v1.72H42.57Z"/><path class="cls-1" d="M52.52,27.91H54.2l.25,1.31a5.89,5.89,0,0,1,3.72-1.59c1.7,0,3.27,1,3.27,3.81v7.19h-2V32.1c0-1.52-.36-2.7-1.84-2.7a5,5,0,0,0-3.09,1.45v7.78h-2Z"/><path class="cls-1" d="M62.8,40.89a3,3,0,0,1,2-2.7A1.5,1.5,0,0,1,64,36.86a2.78,2.78,0,0,1,1.2-2.09,3.73,3.73,0,0,1-1.73-3.26,3.84,3.84,0,0,1,4.09-3.85,4.83,4.83,0,0,1,2.07.41c.11.07.16.07.25,0a3.09,3.09,0,0,1,2.34-.88,3.89,3.89,0,0,1,.66.07l-.45,1.5a3.26,3.26,0,0,0-.66-.07,1.76,1.76,0,0,0-1,.25A3.8,3.8,0,0,1,72,31.6c0,2.33-1.73,3.9-4.25,3.9a4.19,4.19,0,0,1-1.36-.2,1.61,1.61,0,0,0-.5,1.09c0,2.06,7.08.2,7.08,4.22,0,2-2,3.4-5.34,3.4C64.66,44,62.8,42.82,62.8,40.89ZM71,40.8c0-1.84-3.22-1.47-5-2.06a2.28,2.28,0,0,0-1.27,1.81c0,1.22,1.27,1.95,3.16,1.95C69.86,42.5,71,41.76,71,40.8Zm-1-9.23a2.21,2.21,0,0,0-2.27-2.33,2.14,2.14,0,0,0-2.25,2.31,2.19,2.19,0,0,0,2.27,2.36A2.14,2.14,0,0,0,70,31.58Z"/><path class="cls-1" d="M74.45,22.58h2V36c0,.82.25,1.07.79,1.07a2.43,2.43,0,0,0,.68-.14l.41,1.56a4.68,4.68,0,0,1-1.66.32,2,2,0,0,1-2.22-2.24Z"/><path class="cls-1" d="M79.6,24.41a1.29,1.29,0,0,1,2.59,0,1.28,1.28,0,0,1-1.32,1.29A1.25,1.25,0,0,1,79.6,24.41Zm.27,3.49h2V38.63h-2Z"/><path class="cls-1" d="M84.23,36.41a5.34,5.34,0,0,0,2.77.82c1.2,0,2.18-.43,2.18-1.54,0-2.18-5-1.45-5-5,0-1.7,1.34-3,3.77-3a8,8,0,0,1,2.82.52v1.72A6.61,6.61,0,0,0,88,29.27c-1,0-1.88.29-1.88,1.31,0,2.18,5,1.41,5,5.08,0,2.2-1.86,3.2-4.09,3.2a6.61,6.61,0,0,1-3.47-1Z"/><path class="cls-1" d="M93,22.58h2V29.2a5.68,5.68,0,0,1,3.66-1.56c1.68,0,3.27,1,3.27,3.81v7.19h-2V32.1c0-1.52-.39-2.7-1.86-2.7A4.9,4.9,0,0,0,95,30.85v7.78H93Z"/><path class="cls-1" d="M0,0V21.35c0,10.5,5.52,13.49,8.18,14.93.49.26,8.68,4.33,9.2,4.59l.35.19.35-.19c.47-.24,8.71-4.32,9.2-4.59,2.65-1.44,8.18-4.44,8.18-14.93V0ZM.77.77H14.12V14.37H.77ZM15.63,27.29,15.36,27l.35-.41.35.41-.28.33c0,.16,0,1.61.84,2.12a1.94,1.94,0,0,1-.67,0,4.25,4.25,0,0,1-.24.81,4.28,4.28,0,0,1-.24-.81,1.94,1.94,0,0,1-.67,0C15.65,28.9,15.64,27.46,15.63,27.29Zm0,7.37-.28-.33.35-.41.35.41-.28.33c0,.16,0,1.61.84,2.12a1.94,1.94,0,0,1-.67,0,4.24,4.24,0,0,1-.24.81,4.27,4.27,0,0,1-.24-.81,1.94,1.94,0,0,1-.67,0C15.65,36.27,15.64,34.83,15.63,34.67Zm1.2-1.56c.85-.52.84-2,.84-2.12l-.28-.33.35-.41.35.41-.28.33c0,.16,0,1.61.84,2.12a1.94,1.94,0,0,1-.67,0,4.27,4.27,0,0,1-.24.81,4.27,4.27,0,0,1-.24-.81A1.94,1.94,0,0,1,16.84,33.1Zm.84-9.5-.28-.33.35-.41.35.41-.28.33c0,.16,0,1.61.84,2.12a1.93,1.93,0,0,1-.67,0,4.28,4.28,0,0,1-.24.81,4.28,4.28,0,0,1-.24-.81,1.92,1.92,0,0,1-.67,0C17.69,25.21,17.68,23.77,17.67,23.61Zm2,11.06-.28-.33.35-.41.35.41-.28.33c0,.16,0,1.61.84,2.12a1.94,1.94,0,0,1-.66,0,4.26,4.26,0,0,1-.25.81,4.25,4.25,0,0,1-.24-.81,1.94,1.94,0,0,1-.67,0C19.71,36.27,19.69,34.83,19.69,34.67ZM20,29.4a4.26,4.26,0,0,1-.25.81,4.26,4.26,0,0,1-.24-.81,1.94,1.94,0,0,1-.67,0c.85-.52.84-2,.84-2.12L19.41,27l.35-.41.35.41-.28.33c0,.16,0,1.61.84,2.12A1.93,1.93,0,0,1,20,29.4Zm.57-8.64V23h-1.3V20.76H16V23h-1.3V20.73H13.58V14.9h1.2a.62.62,0,0,1,.61-.41.66.66,0,0,1,.63.41h1a.68.68,0,0,1,.64-.41.67.67,0,0,1,.61.41h.91a.67.67,0,0,1,.6-.41.71.71,0,0,1,.61.34l0,.07h1.27v5.86ZM15.63,3.13l-.28-.33.35-.41.35.41-.28.33c0,.16,0,1.61.84,2.12a1.94,1.94,0,0,1-.67,0,4.23,4.23,0,0,1-.24.81,4.26,4.26,0,0,1-.24-.81,1.94,1.94,0,0,1-.67,0C15.65,4.74,15.64,3.29,15.63,3.13Zm0,7.37-.28-.33.35-.41.35.41-.28.33c0,.16,0,1.61.84,2.12a2,2,0,0,1-.67,0,4.23,4.23,0,0,1-.24.81,4.26,4.26,0,0,1-.24-.81,2,2,0,0,1-.67,0C15.65,12.11,15.64,10.67,15.63,10.5Zm2-3.69-.28-.33.35-.41.35.41-.28.33c0,.16,0,1.61.84,2.12a2,2,0,0,1-.67,0,4.27,4.27,0,0,1-.24.81,4.26,4.26,0,0,1-.24-.81,2,2,0,0,1-.67,0C17.69,8.42,17.68,7,17.67,6.82Zm2,3.69-.28-.33.35-.41.35.41-.28.33c0,.16,0,1.61.84,2.12a2,2,0,0,1-.66,0,4.25,4.25,0,0,1-.25.81,4.25,4.25,0,0,1-.24-.81,2,2,0,0,1-.67,0C19.71,12.11,19.69,10.67,19.69,10.5ZM20,5.23a4.25,4.25,0,0,1-.25.81,4.25,4.25,0,0,1-.24-.81,1.94,1.94,0,0,1-.67,0c.85-.52.84-2,.84-2.12l-.28-.33.35-.41.35.41-.28.33c0,.16,0,1.61.84,2.12A1.94,1.94,0,0,1,20,5.23Zm-8.3,10.4-.28-.33.35-.41.35.41-.28.33c0,.17,0,1.61.84,2.12a1.94,1.94,0,0,1-.67,0,4.27,4.27,0,0,1-.24.81,4.29,4.29,0,0,1-.25-.81,1.94,1.94,0,0,1-.66,0C11.72,17.24,11.71,15.79,11.71,15.63ZM9.53,18.08l-.28-.33.35-.41.35.41-.28.33c0,.17,0,1.61.84,2.12a1.94,1.94,0,0,1-.67,0,4.27,4.27,0,0,1-.24.81,4.26,4.26,0,0,1-.25-.81,1.93,1.93,0,0,1-.66,0C9.55,19.69,9.54,18.24,9.53,18.08ZM7.36,15.63l-.28-.33.35-.41.35.41-.28.33c0,.17,0,1.61.84,2.12a1.94,1.94,0,0,1-.67,0,4.26,4.26,0,0,1-.25.81,4.25,4.25,0,0,1-.24-.81,2,2,0,0,1-.67,0C7.37,17.24,7.36,15.79,7.36,15.63ZM5.18,18.08l-.28-.33.35-.41.35.41-.28.33c0,.17,0,1.61.84,2.12a1.94,1.94,0,0,1-.67,0,4.29,4.29,0,0,1-.25.81A4.27,4.27,0,0,1,5,20.18a1.94,1.94,0,0,1-.67,0C5.2,19.69,5.19,18.24,5.18,18.08ZM3,15.63l-.28-.33.35-.41.35.41-.28.33c0,.17,0,1.61.84,2.12a1.94,1.94,0,0,1-.67,0,4.24,4.24,0,0,1-.24.81,4.27,4.27,0,0,1-.24-.81,1.94,1.94,0,0,1-.67,0C3,17.24,3,15.79,3,15.63Zm5.53,20c-2.69-1.46-7.7-4.28-7.77-14H14.12V38.4C11.67,37.18,8.81,35.76,8.54,35.61Zm18.38,0c-.27.15-3.13,1.57-5.58,2.79V21.58H34.69C34.61,31.33,29.6,34.16,26.92,35.61Zm-3.31-20-.28-.33.35-.41.35.41-.28.33c0,.17,0,1.61.84,2.12a1.94,1.94,0,0,1-.67,0,4.26,4.26,0,0,1-.25.81,4.24,4.24,0,0,1-.24-.81,1.94,1.94,0,0,1-.67,0C23.62,17.24,23.61,15.79,23.6,15.63Zm2.18,2.45-.28-.33.35-.41.35.41-.28.33c0,.17,0,1.61.84,2.12a1.94,1.94,0,0,1-.67,0,4.27,4.27,0,0,1-.24.81,4.24,4.24,0,0,1-.24-.81,1.94,1.94,0,0,1-.67,0C25.79,19.69,25.78,18.24,25.78,18.08ZM28,15.63l-.28-.33.35-.41.35.41-.28.33c0,.17,0,1.61.84,2.12a1.94,1.94,0,0,1-.67,0,4.27,4.27,0,0,1-.24.81,4.24,4.24,0,0,1-.24-.81,1.94,1.94,0,0,1-.67,0C28,17.24,28,15.79,28,15.63Zm2.17,2.45-.28-.33.35-.41.35.41-.28.33c0,.17,0,1.61.84,2.12a1.94,1.94,0,0,1-.67,0,4.27,4.27,0,0,1-.24.81,4.24,4.24,0,0,1-.24-.81,1.94,1.94,0,0,1-.67,0C30.14,19.69,30.13,18.24,30.13,18.08Zm2.17-2.45L32,15.3l.35-.41.35.41-.28.33c0,.17,0,1.61.84,2.12a1.94,1.94,0,0,1-.66,0,4.26,4.26,0,0,1-.25.81,4.26,4.26,0,0,1-.25-.81,1.94,1.94,0,0,1-.66,0C32.32,17.24,32.31,15.79,32.3,15.63Zm2.39-1.26H21.34V.77H34.69Z"/><path class="cls-1" d="M12.57,6.3a1.43,1.43,0,0,0-.46-1,1,1,0,0,0-.37-.25.06.06,0,0,0-.06.06v.14h0c0,.06,0,.1-.08.1s-.12-.07-.2-.23a1.09,1.09,0,0,0-.91-.71c-.06,0-.1,0-.1.06a.59.59,0,0,0,.06.16l.09.2a.38.38,0,0,1,0,.1s0,0,0,0a.33.33,0,0,1-.19-.11l-.17-.18L10,4.48a1,1,0,0,0-.46-.39L9.3,3.94a.3.3,0,0,0-.14,0,.05.05,0,0,0-.06.06.24.24,0,0,0,0,.12.62.62,0,0,1,.12.23.06.06,0,0,1-.06.07c-.09,0-.27-.18-.43-.42a1.15,1.15,0,0,1-.2-.63.82.82,0,0,1,.84-.85,1.74,1.74,0,0,1,.85.28l.53.33a1.41,1.41,0,0,0,.62.2,1.54,1.54,0,0,0,.33-.06l.14-.06s.05,0,.05-.06a.05.05,0,0,0,0,0l-.07,0-.25,0a1.41,1.41,0,0,1-.3-.11,5.5,5.5,0,0,1-.57-.28,2.23,2.23,0,0,0-.37-.21c-.09,0-.15-.07-.15-.11a0,0,0,0,1,.05,0,.25.25,0,0,1,.12,0,.87.87,0,0,0,.42.16l.49.17a3,3,0,0,0,.75.16.37.37,0,0,0,.37-.37,1,1,0,0,0-.2-.5s-.05-.06-.08-.06-.07,0-.07.09V2l0,.14a.24.24,0,0,1-.22.26l-.18,0-.74-.24a3.8,3.8,0,0,0-1.21-.26,1.45,1.45,0,0,0-1.55,1.4c0,.9.63,1.48,2.2,2s1.75.66,1.75,1.05a.48.48,0,0,1-.49.43l-.27,0-.77-.18A5.73,5.73,0,0,0,9.18,6.4a2.88,2.88,0,0,0-2.26.71.37.37,0,0,1-.33.15H6.34a.36.36,0,0,0-.32.2l-.19.31a.16.16,0,0,1-.13.07c-.1,0-.16-.08-.28-.35a1,1,0,0,0-.24-.34L5,6.93a.14.14,0,0,1-.06-.09.22.22,0,0,1,0-.11.84.84,0,0,0,.16-.29c0-.15,0-.16.1-.16s.09.07.1.33a.82.82,0,0,0,.09.3l.12.27a.11.11,0,0,0,.1.06c.12,0,.27-.27.31-.57S6,6.36,6,6.36a.06.06,0,0,1,0,0l.1.2a.45.45,0,0,0,.15.17l.14.08h0c.09,0,.12-.06.14-.27V6.46l0-.16,0-.11c0-.07,0-.12.07-.12a.13.13,0,0,1,.08,0l.11.11a.33.33,0,0,0,.22.11c.09,0,.15,0,.15-.1A.59.59,0,0,0,7.13,6L7,5.83C7,5.66,6.89,5.6,6.8,5.6H6.69l-.14.06-.09,0s0,0,0,0a1,1,0,0,1,.19-.46A2.22,2.22,0,0,0,6.8,4.3c0-.59.12-1,.2-1s.08,0,.08.17v.26c0,.11,0,.19.05.19s.21-.14.3-.38a.7.7,0,0,0,.06-.23V3.29l-.23-.42L7,2.8a.13.13,0,0,1-.08-.05V2.48l0-.14,0-.11L6.81,2.1a1.27,1.27,0,0,0-.45.34c-.09.12-.14.16-.18.16a.06.06,0,0,1-.05-.06,1.05,1.05,0,0,1,0-.18V2.3a.78.78,0,0,0-.39-.64l-.07.09-.08.11L5.49,2a.66.66,0,0,0-.11.23.44.44,0,0,0,0,.13v.06c0,.09,0,.12-.05.12h0l-.08-.11L5.07,2.3l-.19-.12-.1-.08,0,.1a.57.57,0,0,0-.06.18v.41c0,.1,0,.14-.08.14l-.13-.06a.33.33,0,0,0-.16,0A.28.28,0,0,0,4,3.13a1,1,0,0,0,.18.59l.15.19c0,.05.12.1.12.07l0-.24,0-.19V3.47c0-.07,0-.12.07-.12s.1.07.14.26L4.72,4l.09.53A2.1,2.1,0,0,0,4.94,5a2.35,2.35,0,0,0,.19.4c.13.16.14.18.14.22a.05.05,0,0,1,0,.05l-.1,0L5,5.6H4.9c-.18,0-.22.16-.22.91A4.58,4.58,0,0,0,4.9,7.88l.24.6a.75.75,0,0,1,.06.28c0,.82-1.09,2.12-2.3,2.71a.93.93,0,0,0-.62.93v.15a1.53,1.53,0,0,1,.38-.16c.34-.09.4-.13.45-.29l0-.15c0-.06,0-.08.31-.21a.47.47,0,0,0,.18-.15c.06-.1.1-.15.13-.15s0,0,0,0v0l-.11.32v.08a.62.62,0,0,0,.38.56A1,1,0,0,1,4.2,12l.2-.32a.85.85,0,0,0,.11-.48,2.08,2.08,0,0,0,0-.35v-.09c0-.06,0-.09.08-.09s.07,0,.08,0l0,.21a.11.11,0,0,0,.11.08c.11,0,.25-.14.4-.4a.6.6,0,0,0,.08-.3l0-.15,0-.17v0c0-.07,0-.13.1-.13s0,0,.05,0l.07.26a.18.18,0,0,0,.15.15c.08,0,.21-.13.28-.28A1,1,0,0,0,6,9.51c0-.24,0-.31.11-.31s.05,0,.06,0l0,.15c0,.05,0,.09.08.09s.17-.14.26-.28a.21.21,0,0,0,0-.11s0-.1-.1-.16-.13-.11-.13-.26a.67.67,0,0,1,.13-.39L6.6,8c.14-.28.19-.35.25-.35a.1.1,0,0,1,.08.1.21.21,0,0,1,0,.09.38.38,0,0,0,0,.13A.08.08,0,0,0,6.94,8,.44.44,0,0,0,7.14,8l.32-.12.37-.14a.67.67,0,0,1,.23,0l.2,0,.26,0a.2.2,0,0,0,.19-.19.7.7,0,0,0-.18-.34.2.2,0,0,1-.06-.1v0a.07.07,0,0,1,.06,0c.08,0,.26.19.42.44,1,1.53,1.32,1.9,2,2.1s.84.36.84.75a1.48,1.48,0,0,1-.35.81,2.2,2.2,0,0,0-.61,1.42v.08l.12-.06.18-.08.28-.06a.24.24,0,0,0,.16-.23v0l0-.25v0a.33.33,0,0,1,.1-.24l.06,0a.11.11,0,0,1,.09.07l.18.38a.65.65,0,0,0,.4.34,1.23,1.23,0,0,1,0-.27v-.09l0-.18v-.15a.57.57,0,0,0-.08-.34l-.14-.18A.83.83,0,0,1,12,11a.29.29,0,0,1,0-.1.08.08,0,0,1,.08-.08s0,0,.14.07a.24.24,0,0,0,.11,0c.07,0,.1-.11.1-.3a.67.67,0,0,0-.07-.39L12.22,10l-.15-.12a.15.15,0,0,1-.06-.1.08.08,0,0,1,.09-.08.94.94,0,0,1,.25.06h.05s.06,0,.06-.09v0l0-.24-.07-.25c0-.08,0-.09-.09-.09h0L12,9.16h0a1,1,0,0,1-.88-.7l-.23-.73A1.51,1.51,0,0,0,10.27,7,.5.5,0,0,0,10,6.91l-.2,0s-.06,0-.06-.06,0-.07.14-.07l.37,0a2.93,2.93,0,0,1,.61.16,2.4,2.4,0,0,0,.76.17A.79.79,0,0,0,12.57,6.3Zm-6.46-3a1,1,0,0,0,.39-.2L6.62,3h0s.06,0,.06.08a2,2,0,0,1-.31.68c-.12.2-.17.32-.22.32S6,3.95,6,3.85l0-.14L6,3.55l0-.09C5.94,3.37,6,3.32,6.11,3.27Zm-1.27-.2V3c0-.06,0-.09.07-.09A.25.25,0,0,1,5,3l.31.25.19.1a.13.13,0,0,1,.08.11v.07a.77.77,0,0,0,0,.24.19.19,0,0,1-.23.2s0,0-.11-.12L5,3.57A1,1,0,0,1,4.84,3.07ZM5.27,5a1.62,1.62,0,0,1-.15-.5c0-.09.07-.14.17-.14a.32.32,0,0,1,.16,0l.14.08H6l.18-.11.11,0c.13,0,.16,0,.16.17s-.13.28-.35.85c-.1.25-.12.39-.27.39s-.29-.13-.42-.45Z"/><path class="cls-1" d="M3.16,5.24c.07,0,.19-.14.24-.3a.75.75,0,0,0,.05-.26.78.78,0,0,0-.05-.26c0-.11-.1-.18-.17-.18s-.13.07-.13.23l0,.21A1.91,1.91,0,0,0,3,5C3,5.12,3.1,5.24,3.16,5.24Z"/><path class="cls-1" d="M4.56,7.9l0-.24,0-.21,0-.25c0-.06,0-.09-.06-.09s-.07,0-.1.08c-.18.27-.3.36-.49.36-.6,0-1.06-1.06-1.06-2.46,0-.12,0-.28,0-.47,0-.36,0-.45,0-.58a1.78,1.78,0,0,0-.39-1.29l-.16-.16-.1-.11v.1A3.13,3.13,0,0,1,2,3.31a.89.89,0,0,0,0,.21.48.48,0,0,0,.09.26.3.3,0,0,0,.1.11L2.34,4l0,.16a.78.78,0,0,0,0,.25,1.25,1.25,0,0,1,0,.34c0,.1,0,.13,0,.13s-.12-.12-.19-.29S2,4.17,1.87,4.17a.72.72,0,0,0-.35.09l.07.09.1.19.16.31L2,5.21a.5.5,0,0,0,.16.16l.18.1c.06,0,.09.07.09.1a.09.09,0,0,1-.1.09h0l-.15,0H2.13s-.07,0-.07.13a1.36,1.36,0,0,0,.67,1,.21.21,0,0,1,.09.12.08.08,0,0,1-.08.07l-.14,0-.08,0c-.06,0-.09,0-.09.12a1.52,1.52,0,0,0,.21.51A.79.79,0,0,0,3,7.85l.51.22a.07.07,0,0,1,0,.07.08.08,0,0,1-.07.08H3.14c-.07,0-.1,0-.1,0a1.08,1.08,0,0,0,.17.37c.12.2.23.32.29.32a.09.09,0,0,0,.07-.06l.12-.26A.91.91,0,0,1,4,8.41a.89.89,0,0,1,.32-.12l.2,0a.09.09,0,0,0,.08-.11v0Z"/><path class="cls-1" d="M2.75,11.06a.3.3,0,0,0,.19.07,1.06,1.06,0,0,0,.72-.38,1.27,1.27,0,0,1-.33-.08l-.21-.09a1.14,1.14,0,0,0-.43-.11.69.69,0,0,0-.47.19l.1.08.23.16Z"/><path class="cls-1" d="M9.24,9.45a.33.33,0,0,1,0-.12l.08-.19a.46.46,0,0,0,0-.18.64.64,0,0,0-.11-.35l-.15-.24C9.05,8.19,9,8.14,9,8.14H8.91l-.08,0-.13.07-.15.18-.16.08a.53.53,0,0,0-.18.42c0,.29,0,.37.42,1a1.4,1.4,0,0,1,.23.65q0,.69-1.25,1l-.52.12a.9.9,0,0,0-.69.8.84.84,0,0,1,.5-.09H7.1c.15,0,.17,0,.27-.15A.86.86,0,0,1,7.74,12l.18-.08.15-.08h0s.06,0,.06,0a.37.37,0,0,1-.11.19.6.6,0,0,0-.18.44.42.42,0,0,0,.12.3.64.64,0,0,1,.23-.29c.32-.27.46-.47.46-.63v-.25c0-.14,0-.19.1-.19a.07.07,0,0,1,.07,0l.06.13a.1.1,0,0,0,.1.05s.11-.05.17-.13l.11-.16A.34.34,0,0,0,9.36,11l-.08-.18a.53.53,0,0,1,0-.18c0-.07,0-.12.1-.12a.1.1,0,0,1,.08,0l.09.11a.11.11,0,0,0,.09,0,.16.16,0,0,0,.12-.1l.09-.18a.27.27,0,0,0,0-.1s0-.07-.1-.1l-.15-.07A.82.82,0,0,1,9.24,9.45Z"/><path class="cls-1" d="M6.92,11.35c.11.15.12.16.23.16l.17,0,.1,0c.19,0,.25-.06.25-.11a.14.14,0,0,0-.06-.09l-.12-.11L7.37,11A.61.61,0,0,0,7,10.91a.71.71,0,0,0-.41.14A1.3,1.3,0,0,1,6.92,11.35Z"/><path class="cls-1" d="M11.07,11.21c0-.08-.07-.12-.2-.12-.31,0-.5.18-.62.57h.32A.49.49,0,0,0,11.07,11.21Z"/><path class="cls-1" d="M5.65,5.36c0,.13.07.18.17.18S6,5.46,6,5.33l0-.25,0-.26a.1.1,0,0,0,0-.07L6,4.72H6l-.18,0H5.62a.07.07,0,0,0-.06,0l0,.06.06.27Z"/><path class="cls-1" d="M25.84,4l.09.53a2.11,2.11,0,0,0,.14.45,2.29,2.29,0,0,0,.19.4c.13.16.14.18.14.22a.05.05,0,0,1,0,.05l-.1,0-.14,0H26c-.19,0-.23.15-.23.9A4.59,4.59,0,0,0,26,7.88l.24.6a.76.76,0,0,1,.06.28c0,.83-1.12,2.15-2.3,2.71-.46.22-.59.45-.63,1.07a2.16,2.16,0,0,1,.4-.16c.33-.09.41-.14.45-.29l0-.15c0-.06.06-.09.29-.21a.46.46,0,0,0,.18-.15c.06-.1.1-.15.13-.15s0,0,0,.06v0l-.13.32v.08a.62.62,0,0,0,.38.56l0-.13a1.23,1.23,0,0,1,.11-.34l.22-.32c.08-.11.09-.19.09-.48v-.45c0-.06,0-.09.08-.09s.07,0,.07,0l0,.21a.11.11,0,0,0,.11.08c.11,0,.25-.14.4-.4a.51.51,0,0,0,.08-.27,2.59,2.59,0,0,0,0-.35V9.92a.08.08,0,0,1,.09-.09s.05,0,.05,0l.08.26c0,.09.09.15.15.15s.35-.36.37-.73,0-.32.11-.32a.06.06,0,0,1,.06,0l0,.15c0,.05,0,.09.08.09s.09-.05.16-.13l.1-.15a.25.25,0,0,0,0-.12c0-.06,0-.07-.1-.14a.29.29,0,0,1-.12-.24A1.46,1.46,0,0,1,27.72,8c.18-.32.21-.35.25-.35a.09.09,0,0,1,.08.1.23.23,0,0,1,0,.1A.43.43,0,0,0,28,8a.09.09,0,0,0,.09.08A.46.46,0,0,0,28.27,8l.31-.12L29,7.72a.79.79,0,0,1,.23,0l.2,0,.26,0a.18.18,0,0,0,.18-.18.48.48,0,0,0-.07-.2l-.1-.16c-.05-.05-.07-.08-.07-.1v0a.07.07,0,0,1,.06,0c.09,0,.26.18.42.44.89,1.45,1.32,1.9,2,2.1s.84.35.84.75a1.48,1.48,0,0,1-.35.8,2.37,2.37,0,0,0-.61,1.41v.09l.12-.06.18-.08.28-.06a.24.24,0,0,0,.16-.24v0l0-.25v0c0-.14.07-.26.15-.26a.11.11,0,0,1,.09.07l.18.38a.65.65,0,0,0,.4.34.79.79,0,0,1,0-.21v-.15a3,3,0,0,0,0-.44.35.35,0,0,0-.08-.23l-.14-.18a.49.49,0,0,1-.12-.31c0-.07,0-.09.06-.09h.05l.1.06a.25.25,0,0,0,.11,0q.1,0,.1-.32a.61.61,0,0,0-.23-.57l-.16-.12a.12.12,0,0,1,0-.09.08.08,0,0,1,.08-.09l.13,0,.13,0h0s.06,0,.06-.1v0l0-.24c0-.25-.08-.34-.15-.34h0l-.29.06h0a1,1,0,0,1-.88-.7L32,7.72A1.52,1.52,0,0,0,31.41,7a.53.53,0,0,0-.24-.12l-.2,0s-.06,0-.06-.06,0-.07.12-.07A3.2,3.2,0,0,1,32,7a2.46,2.46,0,0,0,.76.17c.57,0,.91-.3.91-.78a1.53,1.53,0,0,0-.22-.75,1.81,1.81,0,0,0-.53-.5l-.09,0a.06.06,0,0,0-.06.06v.15h0c0,.06,0,.1-.07.1s-.13-.07-.2-.23a1.07,1.07,0,0,0-.89-.71c-.08,0-.12,0-.12.07a.33.33,0,0,0,.06.15,1.28,1.28,0,0,1,.1.2.31.31,0,0,1,0,.1s0,0-.05,0a.33.33,0,0,1-.19-.11l-.17-.18-.15-.23a1.08,1.08,0,0,0-.45-.39l-.28-.15a.34.34,0,0,0-.14,0,0,0,0,0,0-.05.05.25.25,0,0,0,.05.13.58.58,0,0,1,.1.23.06.06,0,0,1-.06.07c-.08,0-.22-.14-.42-.42a1.07,1.07,0,0,1-.22-.63.83.83,0,0,1,.84-.85,1.74,1.74,0,0,1,.85.28l.54.33a1.41,1.41,0,0,0,.62.2,1,1,0,0,0,.32-.06L33,3.17a.08.08,0,0,0,0-.07S33,3,32.95,3a3.22,3.22,0,0,1-1.12-.44,2.92,2.92,0,0,0-.37-.21c-.09,0-.16-.08-.16-.12s0,0,0,0h.07l.49.18.47.17a3,3,0,0,0,.76.16.35.35,0,0,0,.36-.36.72.72,0,0,0-.07-.31c-.07-.13-.16-.25-.2-.25s-.07,0-.07.12v.21c0,.15-.08.25-.21.25l-.19,0-.74-.24a3.64,3.64,0,0,0-1.2-.26,1.45,1.45,0,0,0-1.56,1.4c0,.9.62,1.47,2.21,2s1.74.66,1.74,1.06a.46.46,0,0,1-.49.42l-.27,0-.77-.18a5.57,5.57,0,0,0-1.41-.16,2.83,2.83,0,0,0-2.25.71.4.4,0,0,1-.34.15h-.26a.35.35,0,0,0-.32.2L27,7.76a.15.15,0,0,1-.13.07c-.12,0-.18-.08-.29-.35a.87.87,0,0,0-.23-.34l-.24-.2S26,6.87,26,6.85a.24.24,0,0,1,.06-.11l.1-.16a.45.45,0,0,0,.06-.14v-.1a.08.08,0,0,1,.08-.06c.08,0,.09,0,.09.33a.81.81,0,0,0,.09.3l.12.27a.11.11,0,0,0,.1.06c.12,0,.27-.28.31-.57s.06-.32.11-.32.07,0,.16.23a.54.54,0,0,0,.14.17.33.33,0,0,0,.14.08h0c.09,0,.12-.06.15-.27V6.46l0-.16,0-.11c0-.07,0-.12.07-.12a.13.13,0,0,1,.08,0l.11.11a.33.33,0,0,0,.23.11c.1,0,.16,0,.16-.11s0-.08-.11-.25l-.08-.15c-.1-.19-.15-.24-.24-.24h-.11l-.15.06-.09,0s0,0,0,0a1,1,0,0,1,.19-.46,2.59,2.59,0,0,0,.19-.89L28,3.77c0-.33.07-.44.14-.44s0,0,0,0l0,.17v.14a.62.62,0,0,0,0,.3s.12-.06.19-.15a.82.82,0,0,0,.11-.23,1.07,1.07,0,0,0,.06-.3c0-.26-.11-.37-.46-.47l-.07,0V2.48l0-.14,0-.11-.06-.12-.09.06a1.2,1.2,0,0,0-.36.28c-.1.13-.14.16-.18.16a.05.05,0,0,1-.06,0l0-.19v0a.84.84,0,0,0-.39-.67l-.08.09-.08.11L26.61,2a.53.53,0,0,0-.13.34v.08c0,.09,0,.12-.06.12h0l-.09-.11L26.2,2.3,26,2.17l-.1-.08a.94.94,0,0,0-.11.57v.09c0,.1,0,.16-.09.16a.35.35,0,0,1-.14-.06.35.35,0,0,0-.17,0,.3.3,0,0,0-.29.33,1,1,0,0,0,.18.57c.09.15.21.27.26.27a1.36,1.36,0,0,0,0-.24l0-.19V3.47c0-.07,0-.12.07-.12s.1.07.14.26Zm1.4-.76a1.3,1.3,0,0,0,.37-.2L27.74,3h0s.06,0,.06.08a1.75,1.75,0,0,1-.29.64c-.12.2-.19.36-.24.36s-.11-.09-.12-.19v-.1l-.09-.2,0-.09C27.06,3.36,27.1,3.32,27.24,3.27Zm-.4,1.18h.31l.17-.11h.07a.29.29,0,0,1,.27.25c0,.11-.15.18-.21.34l-.13.51c-.09.24-.21.36-.36.36s-.3-.14-.42-.45L26.39,5a1.56,1.56,0,0,1-.14-.47.16.16,0,0,1,.17-.17.31.31,0,0,1,.16,0l.14.08ZM26,3a.25.25,0,0,1,.13.06l.3.25.19.1a.15.15,0,0,1,.09.13v0l-.06.2,0,.23a.06.06,0,0,1-.06,0h0a.59.59,0,0,1-.25-.16l-.17-.29A1,1,0,0,1,26,3.26a1.28,1.28,0,0,1,0-.19V3C26,3,26,3,26,3Z"/><path class="cls-1" d="M24.28,5.24c.08,0,.19-.14.25-.29a1.15,1.15,0,0,0,.06-.31.56.56,0,0,0-.06-.21c-.05-.12-.1-.18-.17-.18s-.14.12-.16.44V5C24.18,5.16,24.21,5.24,24.28,5.24Z"/><path class="cls-1" d="M23.5,5.47c.06,0,.1.07.1.1s0,.09-.1.09l-.16,0h-.08s-.06,0-.06.13a1.37,1.37,0,0,0,.68,1c.06,0,.09.08.09.12a.08.08,0,0,1,0,.05l-.06,0-.13,0-.08,0c-.05,0-.09.05-.09.13a1.16,1.16,0,0,0,.21.49.94.94,0,0,0,.37.37l.51.22a.07.07,0,0,1,0,.06.09.09,0,0,1-.07.08h-.35c-.07,0-.1,0-.1.05a1.09,1.09,0,0,0,.17.37c.13.22.21.32.28.32a.09.09,0,0,0,.07-.06l.12-.26a1.13,1.13,0,0,1,.29-.23.77.77,0,0,1,.32-.12c.27,0,.29,0,.29-.16a1.41,1.41,0,0,0,0-.22c0-.06,0-.14,0-.24l0-.21,0-.25c0-.06,0-.09-.06-.09s-.06,0-.09.08a.68.68,0,0,1-.49.36c-.63,0-1.06-1-1.06-2.48V4.62l0-.53V3.91a1.75,1.75,0,0,0-.39-1.16l-.16-.16-.1-.11v.1a2.2,2.2,0,0,1-.08.48l-.07.26a.89.89,0,0,0,0,.2.42.42,0,0,0,.19.37l.13.07,0,.16a.73.73,0,0,0,0,.25,1.29,1.29,0,0,1,0,.34c0,.09,0,.13,0,.13s-.12-.12-.19-.29-.21-.37-.36-.37a.71.71,0,0,0-.35.09,2.54,2.54,0,0,1,.33.59C23.14,5.25,23.21,5.33,23.5,5.47Z"/><path class="cls-1" d="M23.87,11.06a.3.3,0,0,0,.19.07c.22,0,.41-.1.71-.38a1.67,1.67,0,0,1-.54-.17,1,1,0,0,0-.43-.11.7.7,0,0,0-.48.19l.1.08.23.16Z"/><path class="cls-1" d="M30.37,9.47a.5.5,0,0,1,0-.15l.07-.19a.56.56,0,0,0,0-.19.63.63,0,0,0-.11-.34,2.32,2.32,0,0,1-.14-.24c-.07-.17-.1-.22-.16-.22a.29.29,0,0,0-.15.05l-.11.07-.16.18-.16.08a.54.54,0,0,0-.18.42c0,.24.05.38.42,1a1.43,1.43,0,0,1,.23.64c0,.46-.47.84-1.24,1s-1.12.34-1.22.93a.84.84,0,0,1,.5-.09h.19c.15,0,.17,0,.27-.15a.85.85,0,0,1,.37-.32l.18-.08.15-.08h0s.06,0,.06,0a.4.4,0,0,1-.11.19.65.65,0,0,0-.17.37.54.54,0,0,0,.12.36.65.65,0,0,1,.23-.29c.32-.27.46-.47.46-.63v-.25c0-.14,0-.19.1-.19a.07.07,0,0,1,.07,0l.06.13a.1.1,0,0,0,.1.05c.08,0,.14-.06.28-.29a.43.43,0,0,0,.08-.22.34.34,0,0,0,0-.13l-.08-.18a.55.55,0,0,1,0-.18c0-.07,0-.12.1-.12a.1.1,0,0,1,.08,0l.09.11s0,0,.06,0a.19.19,0,0,0,.14-.1l.09-.18a.26.26,0,0,0,0-.1s0-.08-.09-.1l-.16-.07A.8.8,0,0,1,30.37,9.47Z"/><path class="cls-1" d="M28,11.35c.11.15.12.16.23.16l.17,0,.1,0c.19,0,.25-.06.25-.12a.12.12,0,0,0,0-.09l-.14-.11L28.49,11a.61.61,0,0,0-.36-.13.78.78,0,0,0-.42.14A1.29,1.29,0,0,1,28,11.35Z"/><path class="cls-1" d="M32.15,11.34a.26.26,0,0,0,0-.13c0-.08-.07-.12-.19-.12-.31,0-.5.17-.62.57h.33a.34.34,0,0,0,.22,0A.91.91,0,0,0,32.15,11.34Z"/><path class="cls-1" d="M26.67,4.85l.06.27,0,.24c0,.13,0,.18.14.18a.22.22,0,0,0,.22-.21l0-.25c0-.16,0-.25,0-.26a.1.1,0,0,0,0-.07l-.06,0h0l-.18,0h-.14a.07.07,0,0,0-.06,0Z"/><path class="cls-1" d="M12.67,27.51a1.55,1.55,0,0,0-.52-1.1.64.64,0,0,0-.28-.17h0l-.06,0,0,.16,0,.11v0a0,0,0,0,1-.05,0,.1.1,0,0,1-.08,0l-.2-.31a1.08,1.08,0,0,0-.78-.44c-.09,0-.15,0-.15.11a.26.26,0,0,0,.07.13.39.39,0,0,1,.1.18v0s0,0,0,0h0c-.05,0-.08,0-.33-.31a1.45,1.45,0,0,0-.83-.45.12.12,0,0,0-.08,0,.07.07,0,0,0,0,0,.21.21,0,0,0,.08.13.39.39,0,0,1,.13.17s0,0-.06,0-.21-.09-.48-.31a1.28,1.28,0,0,1-.61-1,.74.74,0,0,1,.71-.78,1.4,1.4,0,0,1,.76.27l.55.42a1.46,1.46,0,0,0,.89.29.43.43,0,0,0,.2,0s.08-.05.08-.08,0,0-.1,0a1.28,1.28,0,0,1-.48-.2l-.57-.43a3.82,3.82,0,0,0-.44-.31c-.3-.16-.36-.19-.36-.23s0,0,.06,0l.1,0,.29.12a3.39,3.39,0,0,1,.48.28,2.25,2.25,0,0,0,1.27.53.56.56,0,0,0,.59-.57.44.44,0,0,0,0-.2l-.06-.11s-.06-.07-.07-.06l0,0,0,.24,0,.08a.4.4,0,0,1-.08.11.26.26,0,0,1-.21.08c-.17,0-.37-.09-.9-.43a2.8,2.8,0,0,0-1.4-.52,1.47,1.47,0,0,0-1.47,1.47c0,1.13.69,1.64,2.86,2.12.83.18,1.19.42,1.19.79s-.27.55-.7.55l-.31,0-1.17-.32a5.89,5.89,0,0,0-1.51-.21,2,2,0,0,0-1.82.8c0,.06-.09.1-.12.1a.18.18,0,0,1-.09,0l-.16-.12A.77.77,0,0,0,6,28.11a.36.36,0,0,0-.24.1.29.29,0,0,1-.12.08c-.06,0-.18-.14-.27-.33a1.8,1.8,0,0,1-.19-.77c0-.11,0-.19.09-.19s.07,0,.09.09l.09.33c.05.18.15.33.23.33s.1,0,.16-.14a.53.53,0,0,0,.09-.16c.07-.21.09-.24.14-.24s.1,0,.14.25a.7.7,0,0,0,.07.19,1,1,0,0,0,.14.2.16.16,0,0,0,.12.06c.1,0,.19-.17.19-.35v-.26c0-.08,0-.11.06-.11s0,0,.08.06a.6.6,0,0,0,.19.16.38.38,0,0,0,.16.06.18.18,0,0,0,.11-.06.13.13,0,0,0,0-.09s0-.08-.16-.2a1.44,1.44,0,0,1-.23-.45c0-.09-.07-.15-.11-.15l-.07,0-.15.06-.1,0h0a.08.08,0,0,1-.09-.08.69.69,0,0,1,.23-.27A.41.41,0,0,0,6.77,26c0-.19,0-.34.08-.34l0-.4A4.05,4.05,0,0,1,7,24.49s0-.07,0-.07.06.09.06.18v.17c0,.14,0,.22.07.22s.11-.07.15-.2l.1-.26a.59.59,0,0,0,0-.21.34.34,0,0,0-.31-.38H7.12L7,24a.13.13,0,0,1-.11-.14v-.39l0-.24V23.1l-.1.06-.13.1-.18.15-.15.12a.13.13,0,0,1-.08,0c-.09,0-.1,0-.1-.2v0c0-.14-.06-.25-.29-.53l-.06-.07,0,.08-.12.2-.12.32,0,.2c0,.06,0,.1-.05.1s-.06,0-.11-.08a.88.88,0,0,0-.49-.33l0,.08c0,.13-.06.21-.07.24v.38c0,.06,0,.1-.06.1h0L4.58,24a.21.21,0,0,0-.14,0c-.21,0-.34.11-.34.29s0,.24.26.55c.09.14.2.25.24.25s.05-.07.05-.16l0-.14a.56.56,0,0,1,0-.17c0-.06,0-.1.05-.1s.21.29.25.7l0,.42a1.4,1.4,0,0,0,.14.45,1.15,1.15,0,0,0,.29.42c.11.08.18.15.18.19a.07.07,0,0,1-.06.07l-.23-.08h-.1c-.23,0-.3.13-.3.52a2.16,2.16,0,0,0,.67,1.43l.52.42a1.21,1.21,0,0,1,.46.81c0,.33-.36.66-1,.88l-.37.13c-.29.11-.41.29-.52.84A.92.92,0,0,1,5,31.59h.22a.23.23,0,0,0,.26-.22v-.1s0-.07.1-.1l.16-.08.13-.1.06,0a.07.07,0,0,1,.06.07.3.3,0,0,1,0,.1,1.11,1.11,0,0,0-.06.39,1,1,0,0,0,.18.63.84.84,0,0,1,0-.15,1.85,1.85,0,0,1,.19-.3,1.5,1.5,0,0,0,.3-.69v0l0-.26a.17.17,0,0,1,.06-.12.12.12,0,0,1,.08,0s.08,0,.12.11.06.1.08.1.12-.1.17-.23a.63.63,0,0,0,.06-.24.4.4,0,0,0,0-.15A.4.4,0,0,1,7,30s0,0,0-.07l.06,0,.07,0,.1.07.09,0a.24.24,0,0,0,.16-.13,1,1,0,0,0,.16-.32s0-.05-.08-.1a.81.81,0,0,1-.37-.6.47.47,0,0,1,0-.16l.11-.31.09-.24h0s.06,0,.06.09a.38.38,0,0,1,0,.13.74.74,0,0,0,0,.21.11.11,0,0,0,.12.12.49.49,0,0,0,.19,0,2.31,2.31,0,0,1,.78-.23.62.62,0,0,1,.41.15.21.21,0,0,0,.1,0,.1.1,0,0,0,.07,0,.1.1,0,0,0,0-.06.25.25,0,0,0-.07-.15A.26.26,0,0,1,9,28.25a.06.06,0,0,1,.06-.06c.18,0,.46.56.72,1.45.21.7.27.77.94,1.15A1.22,1.22,0,0,1,11.55,32a6.49,6.49,0,0,1-.43,2,1.4,1.4,0,0,0,0,1.14c0,.14.07.23.08.26l.09.17.07-.14.16-.17a.84.84,0,0,0,.21-.58,1.24,1.24,0,0,0-.06-.37.91.91,0,0,1,0-.2c0-.07.05-.14.11-.14a.14.14,0,0,1,.09.06l.17.19a.4.4,0,0,0,.27.17V34a1.32,1.32,0,0,0-.25-.76c-.09-.11-.13-.18-.13-.22s0-.08.06-.08l0,0c.11.08.17.11.2.11s.1-.14.1-.29a1.05,1.05,0,0,0-.23-.63L11.91,32a.11.11,0,0,1,0-.06.09.09,0,0,1,.1-.08.23.23,0,0,1,.14.06l.09,0c.09,0,.12-.12.12-.46v-.34c0-.24,0-.28-.14-.28h-.09c-.55,0-.81-.35-1-1.29-.1-.68-.36-1.16-.67-1.27s-.25-.1-.25-.15.05-.06.11-.06a.76.76,0,0,1,.21.06,3.17,3.17,0,0,0,1.16.27A.93.93,0,0,0,12.67,27.51ZM6.28,24.32a.66.66,0,0,0,.23-.07l.18-.12h0a.05.05,0,0,1,.05.06v0l-.08.19-.25.27-.15.26L6.22,25h0c-.06,0-.12-.14-.13-.28l0-.22C6.08,24.39,6.14,24.35,6.28,24.32Zm-1.22.06L5,24.21v0s0,0,0,0a.31.31,0,0,1,.14.07c.05,0,.08,0,.16.06.31.08.37.14.37.29v.19l0,.17c0,.07,0,.1-.07.1a1.06,1.06,0,0,1-.25-.18l-.11-.16Zm.26,1.44a.74.74,0,0,1-.09-.31c0-.14.06-.22.18-.22a.23.23,0,0,1,.13,0l.1.07a.53.53,0,0,0,.29.09.45.45,0,0,0,.2,0l.18-.09.09,0c.09,0,.15.07.15.18a1.47,1.47,0,0,1-.24.55c-.15.27-.26.45-.38.45S5.54,26.25,5.32,25.81Z"/><path class="cls-1" d="M9.78,30.83a3.55,3.55,0,0,0-.06-.62l-.2-.49a3.08,3.08,0,0,1-.14-.41c0-.1-.06-.14-.14-.14a.57.57,0,0,0-.54.61,2.85,2.85,0,0,0,.24.92,2.67,2.67,0,0,1,.28.94c0,.41-.17.6-.74.8a1.41,1.41,0,0,0-1.06,1.16l.11,0,.16-.06.18,0a.41.41,0,0,0,.31-.21l0-.16A.11.11,0,0,1,8.28,33l.1,0,.1,0,0,0,0,.15a1,1,0,0,0,0,.26.8.8,0,0,0,.19.57,1.88,1.88,0,0,1,.21-.38A1.09,1.09,0,0,0,9.1,33v-.18c0-.17,0-.25.1-.25a.07.07,0,0,1,.06,0l.06.09a.09.09,0,0,0,.08,0,.21.21,0,0,0,.13-.09.79.79,0,0,0,.13-.4V32c0-.07,0-.1.09-.1s.06,0,.1.1.06.09.09.09A.13.13,0,0,0,10,32l.09-.14.07-.1,0-.05s0-.06-.09-.1A.92.92,0,0,1,9.78,30.83Z"/><path class="cls-1" d="M4.75,27.76c0-.14,0-.24-.09-.24s-.06,0-.09.09a.5.5,0,0,1-.4.24c-.39,0-.86-.61-1.1-1.42A2.25,2.25,0,0,1,3,25.82a3.18,3.18,0,0,1,.08-.69l.12-.55v-.15a1.34,1.34,0,0,0-.66-.92.75.75,0,0,1,0,.13,2.43,2.43,0,0,1,0,.29l0,.23a1.85,1.85,0,0,0,.1.6.88.88,0,0,1,.07.26v0s0,.08,0,.08a.25.25,0,0,1-.12-.07.64.64,0,0,0-.42-.17l-.19,0L2,25l.17.42.24.36.25.17.07.07a.15.15,0,0,1,0,.07,0,0,0,0,1,0,0H2.45s-.06,0-.06,0a1.71,1.71,0,0,0,.1.34l.11.33.19.18.2.15a.2.2,0,0,1,.1.13s0,.06,0,.06H2.94s-.06,0-.06.09a1,1,0,0,0,.23.44c.18.24.3.32.5.32h.17c.08,0,.13,0,.13.1s0,.08-.11.1-.2.06-.2.14a.25.25,0,0,0,.06.12l.09.12c.07.1.16.17.21.17a.28.28,0,0,0,.17-.1.72.72,0,0,1,.37-.25c.39-.1.48-.14.48-.23a.29.29,0,0,0,0-.13A1,1,0,0,1,4.75,27.76Z"/><path class="cls-1" d="M3.31,26s0,0,.06-.06l.12-.23.08-.14a.41.41,0,0,0,.08-.17.51.51,0,0,0-.28-.38,2,2,0,0,0-.16.74C3.21,25.94,3.25,26,3.31,26Z"/><path class="cls-1" d="M5.12,30.56a1.24,1.24,0,0,0,.42-.11s.08-.06.08-.08,0-.06-.11-.12l-.12-.11a.64.64,0,0,0-.3-.16.85.85,0,0,0-.47.2l.06.06.09.09C5,30.54,5,30.56,5.12,30.56Z"/><path class="cls-1" d="M7.65,32.44a.51.51,0,0,0,.18,0l.14,0,.24-.09.23-.08c.06,0,.1-.06.1-.09s-.05,0-.13-.06l-.17-.06c-.28-.11-.32-.13-.42-.13a.76.76,0,0,0-.58.27,1.12,1.12,0,0,1,.23.11Z"/><path class="cls-1" d="M11,33.31l-.08,0-.17.1-.33.15a.77.77,0,0,0-.41.62.78.78,0,0,0,.06.27c.08-.18.13-.21.38-.23s.57-.54.57-.89C11.06,33.33,11,33.31,11,33.31Z"/><path class="cls-1" d="M5.91,26.34c.07,0,.13-.14.16-.37l0-.17v0c0-.07,0-.09-.08-.09H6l-.14,0-.13,0h0c-.07,0-.11,0-.11.12a1.07,1.07,0,0,0,.21.49A.11.11,0,0,0,5.91,26.34Z"/><path class="cls-1" d="M24.35,31l-.72.21a1,1,0,0,0-.74,1,.52.52,0,0,1,.33-.13l.21,0a.59.59,0,0,0,.19-.06l.13-.12.19-.21c.07-.08.14-.13.18-.13s0,0,0,.07a.41.41,0,0,1-.08.19A.54.54,0,0,0,24,32a.69.69,0,0,0,.18.44.76.76,0,0,1,0-.14l.17-.24a1.24,1.24,0,0,0,.27-.51c0-.17,0-.23.06-.23s0,0,.06.11a.14.14,0,0,0,0,.07.12.12,0,0,0,.07,0l.09,0a.81.81,0,0,0,.18-.16.94.94,0,0,0,.17-.42v-.15s0-.07,0-.07.08.06.12.12,0,.06.07.06h0a.17.17,0,0,0,.1,0,.68.68,0,0,0,.23-.42v-.21l0-.17h0A.06.06,0,0,1,25.9,30c.05,0,.11.07.18.24s.07.11.1.11.1,0,.2-.19l.1-.15a.2.2,0,0,0,0-.11.2.2,0,0,0,0-.11l-.09-.14a.22.22,0,0,1,0-.11,1.11,1.11,0,0,1,.17-.53,2.66,2.66,0,0,0,.15-.28s0-.07.06-.07,0,0,0,.06V29s0,.06.1.06L27,29l.28-.1.26-.12a1.52,1.52,0,0,1,.8-.3,1.38,1.38,0,0,1,.54.16l.12,0a.14.14,0,0,0,.1-.06.14.14,0,0,0,0-.09.28.28,0,0,0,0-.14.53.53,0,0,1-.07-.17,0,0,0,0,1,.05,0,.13.13,0,0,1,.09.06l.26.45a1.34,1.34,0,0,0,.72.69l.5.11c.15,0,.19.09.19.29a1,1,0,0,1-.45.84l-.41.26a.75.75,0,0,0-.27.57,3.08,3.08,0,0,0,.08.58l.08-.08.19-.11.17-.17.09-.25.09-.23c0-.11.1-.18.13-.18s.06.06.06.17v.07a.86.86,0,0,0,.15.48l0-.12,0-.16a1,1,0,0,1,.12-.19.91.91,0,0,0,.17-.56.47.47,0,0,0-.06-.22.26.26,0,0,1,0-.1.09.09,0,0,1,0-.05l0,0h0a.2.2,0,0,1,.12.08c0,.06.09.09.12.09s.1-.09.13-.21l0-.11a1.07,1.07,0,0,0-.1-.32.28.28,0,0,1,0-.11.07.07,0,0,1,.06-.07.29.29,0,0,1,.15.1.14.14,0,0,0,.09,0c.07,0,.12-.07.18-.25a1,1,0,0,0,0-.18s0-.05,0-.05h-.17A1,1,0,0,1,31,29l-.32-.38a4.09,4.09,0,0,1-.28-.37l-.26-.17a.13.13,0,0,1-.07-.09s0-.07.11-.07a2.7,2.7,0,0,1,.58.21,3.54,3.54,0,0,0,1.15.25,1,1,0,0,0,1-1,1.44,1.44,0,0,0-.45-.93.41.41,0,0,0-.21-.14.06.06,0,0,0-.06.07.36.36,0,0,0,0,.13.28.28,0,0,1,0,.1c0,.05,0,.08-.05.08s-.15-.12-.21-.32-.22-.4-.57-.58a1.22,1.22,0,0,0-.36-.13s0,0,0,0a.25.25,0,0,0,0,.13.56.56,0,0,1,.09.22h0s0,.07-.06.07-.09,0-.25-.27a1.31,1.31,0,0,0-.51-.38.58.58,0,0,0-.19,0h0s-.07,0-.07,0l.05.1,0,.06a.06.06,0,0,1-.05.06,1.22,1.22,0,0,1-.44-.36,1.13,1.13,0,0,1-.29-.68.88.88,0,0,1,.88-.82.65.65,0,0,1,.29.06l.4.2.46.31a1.86,1.86,0,0,0,.85.31,1.24,1.24,0,0,0,.36-.07c.11,0,.18-.07.18-.11h0l0,0-.25,0a2.16,2.16,0,0,1-.7-.32l-.52-.34-.46-.19s-.06,0-.06-.06a0,0,0,0,1,.05,0l.13,0,.43.12a3.12,3.12,0,0,1,.52.24,2.4,2.4,0,0,0,1,.36.43.43,0,0,0,.45-.42,1.58,1.58,0,0,0,0-.32.45.45,0,0,0-.07-.15s0,0-.06,0-.05,0-.05.09v.14c0,.21-.08.28-.31.28a3.18,3.18,0,0,1-1-.3,3.24,3.24,0,0,0-1.21-.29A1.59,1.59,0,0,0,29,24.83c0,.68.46,1.21,1.38,1.59l1,.4c.8.33,1.09.56,1.09.87s-.24.42-.61.42a2.56,2.56,0,0,1-.73-.16,6.67,6.67,0,0,0-2-.41,2.44,2.44,0,0,0-1.92.73c-.06.07-.1.09-.16.09a.33.33,0,0,1-.16-.06.55.55,0,0,0-.25-.08.42.42,0,0,0-.27.15l-.11.15a.15.15,0,0,1-.1.07c-.08,0-.23-.14-.32-.31a1.06,1.06,0,0,1-.11-.29,1.72,1.72,0,0,1,0-.31v-.21l0-.23c0-.11,0-.17,0-.19a.06.06,0,0,1,.05,0c.06,0,.08.05.08.18v.12c0,.32.13.62.27.62s.21-.2.29-.59c0-.08,0-.12.09-.12s.07.06.11.23a1,1,0,0,0,.17.36.19.19,0,0,0,.13.09c.09,0,.15-.14.2-.46,0-.13.06-.2.1-.2l0,0,.08.12a.31.31,0,0,0,.12.11.33.33,0,0,0,.13,0,.16.16,0,0,0,.11,0c.05,0,.08-.08.08-.09a.23.23,0,0,0-.07-.1,1.1,1.1,0,0,1-.2-.37l-.1-.26a.16.16,0,0,0-.06-.08h-.1l-.24.07h-.07a0,0,0,0,1-.05-.05.23.23,0,0,1,.09-.13,1.65,1.65,0,0,0,.52-1.16,1.17,1.17,0,0,1,.23-.67s.06-.07.07-.07.07,0,.07.1a.46.46,0,0,1,0,.16.4.4,0,0,0,0,.14v0l0,.07.12,0,.14-.16a.83.83,0,0,0,.15-.46.37.37,0,0,0-.09-.26C28.07,24.06,28,24,28,24h-.16c-.07,0-.11,0-.11-.07l0-.09v-.12l-.07-.28-.06-.14,0-.11-.08.06-.17.1a.57.57,0,0,0-.14.12c-.16.19-.17.2-.24.2s-.06,0-.06,0v0a1.17,1.17,0,0,0,0-.23,1.07,1.07,0,0,0-.32-.66,1,1,0,0,0-.36.71v.14c0,.05,0,.08-.05.08h0a.13.13,0,0,1-.08-.06L26,23.42l-.18-.15-.09-.08,0,.09a1.2,1.2,0,0,0-.16.54c0,.15,0,.19-.05.19l-.07,0c-.17-.1-.19-.1-.26-.1a.33.33,0,0,0-.34.36.89.89,0,0,0,.14.38c.1.18.26.35.33.35s0,0,0-.07V24.7l0-.15v0s0-.06.05-.06.19.3.27.9a1.74,1.74,0,0,0,.44,1.1c.06.05.09.1.09.12a0,0,0,0,1,0,0,.36.36,0,0,1-.15-.06.25.25,0,0,0-.12,0,.32.32,0,0,0-.26.27l-.1.64-.08.9a2.4,2.4,0,0,0,.07.68,2.91,2.91,0,0,1,.08.54A1.46,1.46,0,0,1,24.35,31Zm2.37-6.49a.12.12,0,0,1,.1-.13l.24-.07.25-.12.11,0a.06.06,0,0,1,.05.07.18.18,0,0,1,0,.07l-.11.19-.26.26a1,1,0,0,0-.11.25l-.08,0h0a.12.12,0,0,1-.12-.11V24.5Zm-1-.39s0,0,0,0h0l.16.1.23.12c.17.07.24.1.24.16a.48.48,0,0,1,0,.13.7.7,0,0,0,0,.16c0,.15-.11.19-.17.19s-.16-.12-.28-.34a2.62,2.62,0,0,1-.18-.45Zm.18,1.31c0-.12.06-.2.15-.2a.21.21,0,0,1,.13,0l.17.13a.3.3,0,0,0,.15,0,.7.7,0,0,0,.27-.07l.15-.07.09,0c.09,0,.16.1.16.22a1.19,1.19,0,0,1-.3.59l-.12.26c-.1.14-.16.19-.25.19s-.2-.08-.4-.48A1.43,1.43,0,0,1,25.9,25.41Z"/><path class="cls-1" d="M28.91,29.19a.28.28,0,0,0-.14,0l-.09,0a.11.11,0,0,1-.07,0l-.08-.09L28.48,29a.12.12,0,0,0-.09-.06l-.09,0h-.1c-.12,0-.16,0-.16.16v.12a.58.58,0,0,1-.21.36l-.21.19a1.38,1.38,0,0,0-.47.86,2,2,0,0,0,.1.49,2.45,2.45,0,0,1,.14.61c0,.54-.83,1.26-2.37,2-.78.39-1,.63-1,1.17v.2c.14-.13.16-.14.54-.22a.58.58,0,0,0,.52-.51.44.44,0,0,1,.28-.38.6.6,0,0,0,.15-.11l.06,0a0,0,0,0,1,0,0,.48.48,0,0,1-.07.19.41.41,0,0,0,0,.21.72.72,0,0,0,.14.45.63.63,0,0,1,.28-.32.87.87,0,0,0,.35-.75c0-.17.05-.26.1-.26a.06.06,0,0,1,.05,0l.08.17a.08.08,0,0,0,.07,0,.27.27,0,0,0,.14-.08l.16-.15a.81.81,0,0,0,.13-.47c0-.1,0-.16.08-.16s0,0,.06.06l.07.23c0,.05,0,.09.08.09l.09-.06a1,1,0,0,0,.16-.17.39.39,0,0,0,.08-.23v-.19a.2.2,0,0,1,0-.12l0,0a.08.08,0,0,1,.06.06l0,.12a.12.12,0,0,0,.11.09c.06,0,.12-.05.21-.18l.07-.09a.29.29,0,0,0,.08-.14.2.2,0,0,0,0-.08,1.23,1.23,0,0,1-.25-.77,2.1,2.1,0,0,1,.58-1.28,1.75,1.75,0,0,0,.41-.91C29,29.22,29,29.19,28.91,29.19Z"/><path class="cls-1" d="M23.24,25.77c.2.18.22.21.22.27a.09.09,0,0,1-.08.09h-.12c-.06,0-.12.11-.12.24a.81.81,0,0,0,.07.29.46.46,0,0,0,.08.14l.11.11a.16.16,0,0,1,0,.12c0,.06,0,.1-.07.1l-.1,0-.08,0c-.05,0-.07,0-.07.09l0,.17.07.29a.52.52,0,0,0,.12.22.54.54,0,0,0,.17.14l.23.1a.11.11,0,0,1,0,.09.08.08,0,0,1-.08.08l-.12,0h-.11c-.12,0-.12,0-.12.1a.71.71,0,0,0,0,.18l0,.18c0,.19.11.29.18.29l.08,0a1.4,1.4,0,0,1,.7-.24,2.29,2.29,0,0,1,.55.06l.11,0s0,0,0-.13l0-.2,0-.35,0-.26v-.15l-.09.08a.66.66,0,0,1-.51.24c-.52,0-.82-.58-.82-1.6a10.84,10.84,0,0,1,.18-1.7,2,2,0,0,0,0-.31,1.23,1.23,0,0,0-.65-1v.28a.71.71,0,0,1,0,.18,1.23,1.23,0,0,0,0,.26.91.91,0,0,0,.16.55.84.84,0,0,1,.12.38s0,.07,0,.07a.07.07,0,0,1-.06,0l-.09-.12c-.07-.1-.14-.13-.32-.13h-.2a2.45,2.45,0,0,1,.14.4C23,25.56,23,25.59,23.24,25.77Z"/><path class="cls-1" d="M24.28,25.69a.53.53,0,0,0,.15-.35.36.36,0,0,0,0-.16c0-.08-.11-.16-.16-.16s-.07.09-.09.24l0,.17,0,.17v.28l.1-.1Z"/><path class="cls-1" d="M23.34,30.71a.49.49,0,0,0,.45.23l.16,0,.15,0,.11,0c.05,0,.09,0,.09-.06s-.09-.1-.23-.19l-.27-.16a.58.58,0,0,0-.26-.07.83.83,0,0,0-.47.15C23.19,30.55,23.22,30.57,23.34,30.71Z"/><path class="cls-1" d="M25.12,33.57l.33-.18c.21-.11.31-.19.31-.25S25.62,33,25.4,33a.74.74,0,0,0-.8.66v.13A4.87,4.87,0,0,0,25.12,33.57Z"/><path class="cls-1" d="M29.85,30.79l.16-.11c.23-.15.24-.16.24-.21s-.09-.09-.28-.09c-.36,0-.57.17-.75.58.16,0,.21-.07.29-.08h.2Z"/><path class="cls-1" d="M26.34,26.06a.2.2,0,0,0,.16.19c.1,0,.18-.16.22-.4a1.21,1.21,0,0,0,0-.16c0-.08,0-.11-.13-.11h-.19c-.07,0-.1.06-.1.2v.27Z"/><circle class="cls-1" cx="14.8" cy="16.85" r="0.3"/><circle class="cls-1" cx="20.45" cy="16.85" r="0.3"/><path class="cls-1" d="M14.81,19.82a.29.29,0,0,0,.28-.29.3.3,0,0,0-.59,0A.3.3,0,0,0,14.81,19.82Z"/><circle class="cls-1" cx="20.45" cy="19.53" r="0.3"/><path class="cls-1" d="M19.32,18.15a2.28,2.28,0,0,0-3.45,0,2.16,2.16,0,0,0,1.77.87A2,2,0,0,0,19.32,18.15Zm-3.11,0a2.12,2.12,0,0,1,1.38-.52,2,2,0,0,1,1.37.54,1.75,1.75,0,0,1-1.38.58A1.92,1.92,0,0,1,16.22,18.15Z"/><path class="cls-1" d="M17.59,17.84a1.65,1.65,0,0,0-.79.19,1.39,1.39,0,0,0,.78.25,1.41,1.41,0,0,0,.83-.25A1.9,1.9,0,0,0,17.59,17.84Z"/><path class="cls-1" d="M15.7,15.87v-.55c0-.27-.11-.43-.29-.43l-.14,0-.08,0a.28.28,0,0,0-.07.09.39.39,0,0,0,0,.13v.71h0V16a.29.29,0,0,0,.3.3.28.28,0,0,0,.31-.3V15.9h0Z"/><path class="cls-1" d="M17.93,15.87v-.55c0-.27-.11-.44-.28-.44s-.33.17-.33.42v.58h0V16a.3.3,0,0,0,.3.3.28.28,0,0,0,.31-.3V15.9h0Z"/><path class="cls-1" d="M20.09,15.87v-.55c0-.27-.11-.43-.29-.43l-.14,0-.08,0a.29.29,0,0,0-.07.09.39.39,0,0,0,0,.13v.71h0V16a.3.3,0,0,0,.3.3.28.28,0,0,0,.31-.3V15.9h0Z"/><rect class="cls-1" x="14.93" y="21.27" width="0.67" height="0.87"/><rect class="cls-1" x="14.93" y="22.33" width="0.67" height="0.27"/><rect class="cls-1" x="19.52" y="21.27" width="0.67" height="0.87"/><rect class="cls-1" x="19.52" y="22.33" width="0.67" height="0.27"/></svg>